<svg width="48" height="52" viewBox="0 0 48 52" fill="none" xmlns="http://www.w3.org/2000/svg">
<g clip-path="url(#clip0_27_1802)">
<path d="M42.76 46.9251L23.9729 51.9838L5.18544 46.9251L0.850098 -0.0427551L47.0959 -0.0427551L42.76 46.9251Z" fill="#2062AF"/>
<path d="M23.9727 3.76154L23.9727 47.9491L24.0151 47.9606L39.2188 43.8667L42.7281 3.76154H23.9727Z" fill="#3C9CD7"/>
<path d="M23.9568 15.505L10.5103 21.1052L10.9562 26.6497L23.9568 21.0911L37.7862 15.1784L38.3595 9.50656L23.9568 15.505Z" fill="white"/>
<path d="M10.5098 21.1054L10.9557 26.6499L23.9563 21.0913V15.5052L10.5098 21.1054Z" fill="url(#paint0_linear_27_1802)"/>
<path d="M38.3588 9.5072L23.9561 15.5055V21.0916L37.7854 15.1789L38.3588 9.5072Z" fill="url(#paint1_linear_27_1802)"/>
<path d="M10.5303 21.1055L10.9763 26.6501L30.9241 26.7137L30.4779 34.1063L23.914 35.9543L17.604 34.3611L17.2217 29.7725H11.3587L12.1235 38.6309L23.9777 42.1359L35.7676 38.6945L37.2972 21.1055H10.5303Z" fill="url(#paint2_linear_27_1802)"/>
<path opacity="0.05" d="M23.9563 21.1052H10.5098L10.9557 26.6498L23.9563 26.6913V21.1052ZM23.9563 35.9363L23.8926 35.9541L17.5835 34.3609L17.2012 29.7723H11.3383L12.103 38.6307L23.9563 42.1357V35.9363Z" fill="black"/>
<path d="M9.29883 9.50693H38.3591L37.7858 15.1788H9.99978L9.29883 9.50693Z" fill="url(#paint3_linear_27_1802)"/>
<path opacity="0.05" d="M23.9564 9.50693H9.29883L9.99978 15.1788H23.9564V9.50693Z" fill="black"/>
</g>
<defs>
<linearGradient id="paint0_linear_27_1802" x1="17.2331" y1="26.6501" x2="17.2331" y2="15.5054" gradientUnits="userSpaceOnUse">
<stop offset="0.387" stop-color="#D1D3D4" stop-opacity="0"/>
<stop offset="1" stop-color="#D1D3D4"/>
</linearGradient>
<linearGradient id="paint1_linear_27_1802" x1="31.1573" y1="21.0918" x2="31.1573" y2="9.50734" gradientUnits="userSpaceOnUse">
<stop offset="0.387" stop-color="#D1D3D4" stop-opacity="0"/>
<stop offset="1" stop-color="#D1D3D4"/>
</linearGradient>
<linearGradient id="paint2_linear_27_1802" x1="10.5303" y1="31.6209" x2="37.2971" y2="31.6209" gradientUnits="userSpaceOnUse">
<stop stop-color="#E8E7E5"/>
<stop offset="1" stop-color="white"/>
</linearGradient>
<linearGradient id="paint3_linear_27_1802" x1="9.29883" y1="12.3429" x2="38.359" y2="12.3429" gradientUnits="userSpaceOnUse">
<stop stop-color="#E8E7E5"/>
<stop offset="1" stop-color="white"/>
</linearGradient>
<clipPath id="clip0_27_1802">
<rect width="46.2429" height="52" fill="white" transform="translate(0.852051)"/>
</clipPath>
</defs>
</svg>
