<svg width="17" height="13" viewBox="0 0 17 13" fill="none" xmlns="http://www.w3.org/2000/svg">
<g clip-path="url(#clip0_27_1844)">
<path d="M1.44303 12.5435H4.09915V6.09292L0.304688 3.24707V11.4052C0.304688 12.0351 0.815043 12.5435 1.44303 12.5435Z" fill="#4285F4"/>
<path d="M13.2061 12.5435H15.8622C16.4921 12.5435 17.0005 12.0332 17.0005 11.4052V3.24707L13.2061 6.09292" fill="#34A853"/>
<path d="M13.2056 1.16V6.09281L17 3.24696V1.72917C17 0.321425 15.3931 -0.481105 14.268 0.363164" fill="#FBBC04"/>
<path d="M4.09961 6.09272V1.15991L8.65297 4.57493L13.2063 1.15991V6.09272L8.65297 9.50774" fill="#EA4335"/>
<path d="M0.304688 1.72929V3.24708L4.09915 6.09293V1.16012L3.0367 0.363286C1.90975 -0.480983 0.304688 0.321547 0.304688 1.72929Z" fill="#C5221F"/>
</g>
<defs>
<clipPath id="clip0_27_1844">
<rect width="16.6957" height="12.5217" fill="white" transform="translate(0.304688 0.0224609)"/>
</clipPath>
</defs>
</svg>
