<svg width="132" height="132" viewBox="0 0 132 132" fill="none" xmlns="http://www.w3.org/2000/svg">
<path d="M96.0183 48.7641C95.5498 47.9542 95.3194 47.1571 95.3271 46.3727C95.3405 45.5898 95.5712 44.8577 96.0192 44.1765C96.4729 43.4968 97.1262 42.9114 97.9791 42.4203C98.8214 41.9353 99.6545 41.6649 100.479 41.609C101.305 41.5566 102.062 41.7103 102.751 42.07C103.441 42.4333 104.007 42.9966 104.449 43.7601C104.717 44.2239 104.901 44.7176 104.999 45.2412C105.097 45.7648 105.082 46.2942 104.954 46.8293C104.826 47.3644 104.557 47.8828 104.148 48.3847C103.743 48.8845 103.167 49.3491 102.421 49.7786L101.854 50.1053L98.074 43.5712L99.2732 42.8808L102.146 47.8469C102.567 47.6044 102.891 47.3041 103.116 46.9458C103.345 46.5856 103.465 46.1958 103.475 45.7765C103.486 45.3608 103.372 44.946 103.133 44.5321C102.873 44.0826 102.535 43.7539 102.12 43.5459C101.71 43.3395 101.276 43.247 100.818 43.2685C100.365 43.2915 99.9331 43.4211 99.5226 43.6574L98.5858 44.1968C98.0362 44.5133 97.6244 44.8788 97.3504 45.2934C97.0784 45.7115 96.9419 46.154 96.9407 46.6207C96.9431 47.0854 97.0795 47.5514 97.3498 48.0188C97.5252 48.322 97.728 48.5739 97.9581 48.7743C98.1918 48.9726 98.4487 49.1125 98.7289 49.1937C99.009 49.275 99.3054 49.2898 99.6181 49.2382L100.221 50.9098C99.7048 51.0454 99.1882 51.0528 98.6711 50.932C98.1596 50.8127 97.6749 50.571 97.2169 50.2069C96.7645 49.8444 96.365 49.3634 96.0183 48.7641Z" fill="url(#paint0_radial_135_265)"/>
<path d="M90.4792 41.3798C89.8237 40.735 89.4053 40.0318 89.224 39.2703C89.0486 38.5088 89.0932 37.7414 89.3579 36.9682C89.6226 36.195 90.0889 35.47 90.7567 34.7931C91.4333 34.1074 92.1596 33.6295 92.9358 33.3595C93.7149 33.0865 94.4855 33.0333 95.2479 33.2C96.0102 33.3667 96.7103 33.7637 97.3482 34.3912C97.8626 34.8972 98.2272 35.4435 98.442 36.0301C98.6597 36.6138 98.7243 37.197 98.6358 37.7798C98.5503 38.3655 98.307 38.9086 97.9059 39.4091L96.6228 38.1469C96.8645 37.761 96.9717 37.3295 96.9444 36.8523C96.9201 36.3779 96.6977 35.934 96.2774 35.5205C95.9099 35.1591 95.4927 34.9392 95.0255 34.8608C94.5642 34.7823 94.0823 34.8452 93.5796 35.0494C93.0798 35.2507 92.5928 35.5916 92.1187 36.0722C91.633 36.5645 91.2887 37.0631 91.0859 37.5681C90.8831 38.073 90.8216 38.5581 90.9013 39.0234C90.9839 39.4915 91.2118 39.9092 91.5851 40.2764C91.835 40.5222 92.1062 40.6994 92.3986 40.8081C92.6969 40.9167 93.0004 40.9525 93.3091 40.9155C93.6208 40.8814 93.9245 40.7703 94.2203 40.582L95.5034 41.8441C95.0256 42.2345 94.4986 42.484 93.9222 42.5926C93.3458 42.7012 92.7609 42.6571 92.1675 42.4602C91.5769 42.2661 91.0142 41.906 90.4792 41.3798Z" fill="url(#paint1_radial_135_265)"/>
<path d="M84.3977 36.2229L89.6576 28.3327L91.1974 29.3574L85.9375 37.2475L84.3977 36.2229ZM91.2468 27.6328C90.979 27.4546 90.8083 27.2125 90.7348 26.9065C90.6669 26.5993 90.7163 26.3207 90.883 26.0707C91.0519 25.8173 91.2902 25.6644 91.5977 25.612C91.911 25.5584 92.2015 25.6207 92.4693 25.7989C92.7371 25.9771 92.9049 26.2198 92.9728 26.5269C93.0463 26.8329 92.9986 27.1127 92.8297 27.3661C92.663 27.6161 92.4231 27.7679 92.1098 27.8214C91.8023 27.8738 91.5146 27.811 91.2468 27.6328Z" fill="url(#paint2_radial_135_265)"/>
<path d="M78.8675 33.3341L82.9089 24.7561L84.5264 25.5176L83.8844 26.8803L83.9739 26.9225C84.3481 26.5346 84.7953 26.3016 85.3153 26.2234C85.8409 26.1433 86.3555 26.2219 86.8592 26.459C86.9637 26.5082 87.085 26.5699 87.2233 26.6441C87.3653 26.7201 87.4748 26.783 87.5516 26.8328L86.7991 28.43C86.7407 28.3797 86.6309 28.3031 86.4698 28.1999C86.3105 28.093 86.145 27.9992 85.9733 27.9184C85.5778 27.7322 85.1858 27.6499 84.7971 27.6717C84.414 27.6914 84.0636 27.8062 83.7459 28.016C83.43 28.2221 83.1843 28.5113 83.0089 28.8836L80.5409 34.122L78.8675 33.3341Z" fill="url(#paint3_radial_135_265)"/>
<path d="M68.4313 34.2657L71.1025 21.5022L72.87 21.8734L72.5551 23.3782L72.7064 23.41C72.8518 23.2386 73.05 23.0468 73.3008 22.8345C73.5517 22.6222 73.8725 22.4583 74.2632 22.3426C74.6548 22.223 75.1391 22.2238 75.7162 22.345C76.4668 22.5026 77.097 22.8326 77.607 23.3351C78.1169 23.8375 78.4647 24.4805 78.6504 25.2639C78.8401 26.0482 78.83 26.942 78.6201 27.9452C78.4101 28.9484 78.0626 29.7734 77.5776 30.4202C77.0934 31.0629 76.5183 31.5163 75.8522 31.7801C75.1869 32.04 74.479 32.0911 73.7284 31.9335C73.1634 31.8148 72.7212 31.6231 72.4016 31.3583C72.0861 31.0944 71.8541 30.8143 71.7054 30.5181C71.5568 30.2219 71.4486 29.9637 71.381 29.7434L71.272 29.7205L70.2412 34.6458L68.4313 34.2657ZM71.9048 26.5159C71.7682 27.1686 71.7433 27.7606 71.8301 28.292C71.9169 28.8233 72.1108 29.2657 72.4117 29.6192C72.7136 29.9685 73.1248 30.1979 73.6453 30.3072C74.1861 30.4208 74.668 30.3727 75.0911 30.1629C75.515 29.9491 75.8716 29.6139 76.1609 29.1574C76.4543 28.7017 76.6659 28.1636 76.7958 27.5431C76.924 26.9307 76.9462 26.3613 76.8626 25.8348C76.783 25.3092 76.5892 24.8668 76.2809 24.5077C75.9768 24.1494 75.5523 23.913 75.0075 23.7986C74.4829 23.6884 74.0107 23.7302 73.591 23.9238C73.1754 24.1183 72.8242 24.4378 72.5373 24.8823C72.2505 25.3268 72.0397 25.8713 71.9048 26.5159Z" fill="url(#paint4_radial_135_265)"/>
<path d="M58.6687 31.5014L57.2409 22.1205L59.0076 21.8549L59.2344 23.3451L59.3322 23.3304C59.4266 22.7998 59.6677 22.3575 60.0557 22.0034C60.4472 21.6447 60.918 21.424 61.4682 21.3413C61.5823 21.3241 61.7174 21.308 61.8735 21.2929C62.0337 21.2771 62.1596 21.2686 62.2511 21.2673L62.5169 23.014C62.4405 23.0047 62.3066 23.0019 62.1155 23.0057C61.9236 23.0053 61.734 23.0193 61.5465 23.0475C61.1145 23.1124 60.7433 23.2619 60.433 23.496C60.126 23.7254 59.8992 24.0156 59.7526 24.3667C59.6053 24.7137 59.5626 25.0907 59.6246 25.4979L60.4965 31.2265L58.6687 31.5014Z" fill="url(#paint5_radial_135_265)"/>
<path d="M54.7979 32.5843L52.0061 23.5125L53.7733 22.9726L56.5651 32.0444L54.7979 32.5843ZM52.4678 21.8401C52.1604 21.934 51.8649 21.9123 51.5813 21.775C51.3003 21.6325 51.1156 21.4176 51.0272 21.1301C50.9375 20.8388 50.9695 20.5576 51.1232 20.2866C51.2797 20.0105 51.5115 19.8255 51.8189 19.7316C52.1262 19.6377 52.4204 19.662 52.7013 19.8045C52.985 19.9418 53.1716 20.1562 53.2613 20.4476C53.3498 20.735 53.3158 21.0168 53.1593 21.2928C53.0056 21.5638 52.7751 21.7462 52.4678 21.8401Z" fill="url(#paint6_radial_135_265)"/>
<path d="M48.9501 35.3797C48.4187 35.6612 47.8861 35.8175 47.352 35.8486C46.8161 35.876 46.3218 35.7671 45.8693 35.5218C45.4204 35.2746 45.0497 34.8763 44.7572 34.327C44.5054 33.8541 44.3892 33.4167 44.4084 33.0147C44.4277 32.6127 44.5446 32.2407 44.759 31.8985C44.9734 31.5564 45.2475 31.2386 45.5812 30.9453C45.9149 30.6519 46.2675 30.3765 46.639 30.119C47.1103 29.7947 47.4927 29.5315 47.7863 29.3293C48.078 29.1235 48.2715 28.9393 48.367 28.7768C48.4624 28.6143 48.4578 28.4348 48.3533 28.2384L48.3329 28.2002C48.0792 27.7237 47.7479 27.4258 47.3392 27.3065C46.9341 27.1854 46.4677 27.2646 45.94 27.5441C45.3904 27.8353 45.0222 28.1866 44.8354 28.598C44.6502 29.0039 44.5761 29.386 44.6128 29.7443L42.893 30.2078C42.8038 29.6021 42.8506 29.0503 43.0334 28.5523C43.2179 28.0488 43.5016 27.6047 43.8846 27.2199C44.2657 26.8314 44.7092 26.5032 45.215 26.2352C45.5499 26.0578 45.926 25.9098 46.3435 25.7913C46.7626 25.6672 47.1912 25.622 47.6291 25.6558C48.0707 25.6877 48.4997 25.8406 48.916 26.1143C49.3305 26.3845 49.7004 26.8251 50.0258 27.4363L52.9892 33.002L51.3952 33.8465L50.7851 32.7006L50.7196 32.7353C50.7263 33.0022 50.6784 33.2934 50.5758 33.609C50.4732 33.9245 50.2921 34.2373 50.0326 34.5474C49.7731 34.8574 49.4123 35.1349 48.9501 35.3797ZM48.6076 33.8822C49.0589 33.6431 49.3972 33.3496 49.6226 33.0017C49.8516 32.6518 49.9733 32.2889 49.9877 31.9128C50.0038 31.5312 49.9237 31.1748 49.7474 30.8438L49.1722 29.7634C49.1449 29.8524 49.0612 29.9668 48.9209 30.1064C48.7823 30.2404 48.6172 30.3816 48.4254 30.5298C48.2318 30.6743 48.0426 30.8142 47.858 30.9493C47.6714 31.0808 47.5156 31.1914 47.3906 31.2809C47.0953 31.4886 46.8418 31.7092 46.6301 31.9426C46.4221 32.1741 46.2873 32.4204 46.2257 32.6816C46.1658 32.9371 46.2134 33.2105 46.3683 33.5015C46.5833 33.9053 46.8952 34.1318 47.304 34.181C47.7109 34.2266 48.1455 34.127 48.6076 33.8822Z" fill="url(#paint7_radial_135_265)"/>
<path d="M39.0669 30.1549L40.0318 31.2826L35.953 34.7605L34.9881 33.6327L39.0669 30.1549ZM42.2821 39.8966L35.3908 31.8427C35.0048 31.3916 34.7832 30.9332 34.7259 30.4673C34.666 29.9983 34.7359 29.5513 34.9357 29.1262C35.1329 28.6981 35.4225 28.321 35.8047 27.9952C36.0867 27.7548 36.348 27.5726 36.5887 27.4486C36.8267 27.3215 37.0104 27.2353 37.1396 27.1901L37.7837 28.6077C37.7018 28.645 37.5985 28.6952 37.4737 28.7583C37.3462 28.8183 37.2088 28.911 37.0615 29.0366C36.7201 29.3277 36.5481 29.6206 36.5456 29.9153C36.5462 30.2074 36.6833 30.5132 36.9567 30.8327L43.6871 38.6986L42.2821 39.8966Z" fill="url(#paint8_radial_135_265)"/>
<path d="M35.4554 48.9215C35.1557 49.4423 34.7882 49.8577 34.3529 50.1676C33.914 50.4755 33.4378 50.6457 32.9242 50.6781C32.4128 50.7069 31.8871 50.5662 31.3472 50.2559C30.8824 49.9887 30.5511 49.6797 30.3534 49.3287C30.1557 48.9777 30.0565 48.6003 30.0558 48.1964C30.0551 47.7925 30.1178 47.3776 30.2439 46.9517C30.3701 46.5258 30.5218 46.105 30.6991 45.6895C30.9252 45.1644 31.1087 44.7382 31.2494 44.4108C31.3867 44.0815 31.4524 43.8226 31.4467 43.6341C31.4409 43.4457 31.3415 43.296 31.1484 43.185L31.1109 43.1634C30.6425 42.8942 30.2036 42.8176 29.7942 42.9336C29.3869 43.0461 29.0344 43.3609 28.7367 43.8781C28.4268 44.4168 28.3022 44.9101 28.3632 45.3581C28.4226 45.8005 28.5633 46.1638 28.7852 46.448L27.5766 47.7542C27.1787 47.2882 26.9245 46.7955 26.8141 46.2764C26.7021 45.7516 26.7058 45.2244 26.825 44.6948C26.9406 44.1631 27.1411 43.6494 27.4265 43.1536C27.6154 42.8254 27.8548 42.5002 28.145 42.178C28.4335 41.8502 28.7721 41.5843 29.1607 41.3804C29.5513 41.173 29.9957 41.0747 30.4938 41.0856C30.9883 41.0945 31.5359 41.2716 32.1366 41.6168L37.6072 44.7609L36.7081 46.3233L35.5818 45.676L35.5448 45.7402C35.6927 45.9628 35.8072 46.2351 35.8883 46.5571C35.9695 46.8791 35.9828 47.2404 35.9283 47.641C35.8738 48.0417 35.7162 48.4685 35.4554 48.9215ZM34.3684 47.8339C34.6229 47.3916 34.753 46.9632 34.7584 46.5486C34.7659 46.1304 34.6756 45.7581 34.4876 45.4317C34.298 45.0996 34.0406 44.8401 33.7152 44.6531L32.6532 44.0428C32.6776 44.1327 32.6676 44.2741 32.6232 44.467C32.5773 44.6542 32.5127 44.8615 32.4294 45.089C32.3425 45.3144 32.2569 45.5334 32.1726 45.746C32.0847 45.9566 32.0117 46.133 31.9537 46.2752C31.8144 46.6082 31.7173 46.9298 31.6625 47.24C31.6097 47.5467 31.6268 47.8271 31.7137 48.0812C31.7991 48.3297 31.9848 48.5361 32.2709 48.7005C32.6678 48.9286 33.0523 48.955 33.4244 48.7796C33.793 48.6022 34.1077 48.2869 34.3684 47.8339Z" fill="url(#paint9_radial_135_265)"/>
<path d="M31.186 61.3417L21.8337 59.6708L22.1461 57.914L23.6318 58.1794L23.6491 58.0821C23.176 57.822 22.8336 57.4514 22.6217 56.9703C22.4066 56.4845 22.3477 55.968 22.445 55.4209C22.4651 55.3074 22.493 55.1744 22.5285 55.0218C22.5647 54.8652 22.5968 54.7434 22.6249 54.6564L24.3662 54.9675C24.333 55.0369 24.2876 55.1626 24.2301 55.3446C24.1685 55.526 24.1211 55.7099 24.088 55.8963C24.0116 56.3259 24.0348 56.7252 24.1577 57.0942C24.2772 57.4584 24.48 57.7665 24.7661 58.0183C25.0481 58.2694 25.3921 58.4312 25.798 58.5037L31.5092 59.5241L31.186 61.3417Z" fill="url(#paint10_radial_135_265)"/>
<path d="M31.2112 67.1169C31.2595 68.005 31.098 68.7908 30.7265 69.4743C30.355 70.1578 29.8129 70.7019 29.1002 71.1066C28.3874 71.5113 27.5412 71.7395 26.5615 71.7913C25.5777 71.8433 24.7074 71.7058 23.9507 71.3788C23.194 71.0518 22.5938 70.5681 22.1503 69.9277C21.7067 69.2873 21.4607 68.523 21.4124 67.6349C21.364 66.7468 21.5256 65.961 21.897 65.2775C22.2685 64.594 22.8127 64.0498 23.5295 63.6449C24.2464 63.24 25.0968 63.0116 26.0806 62.9596C27.0602 62.9078 27.9264 63.0455 28.679 63.3727C29.4316 63.6999 30.0297 64.1837 30.4733 64.8241C30.9168 65.4645 31.1628 66.2288 31.2112 67.1169ZM29.661 67.1927C29.6297 66.6171 29.4514 66.1482 29.1262 65.786C28.801 65.4238 28.3803 65.1657 27.8642 65.0115C27.3478 64.8533 26.785 64.7903 26.1758 64.8225C25.5707 64.8544 25.0201 64.9763 24.5238 65.1881C24.0233 65.396 23.6289 65.6973 23.3408 66.0918C23.0527 66.4864 22.9243 66.9715 22.9556 67.5472C22.9872 68.1269 23.1678 68.5998 23.4973 68.9659C23.8266 69.3278 24.2515 69.5878 24.772 69.7458C25.2882 69.9 25.8488 69.961 26.4539 69.9291C27.0631 69.8969 27.6159 69.7769 28.1124 69.5692C28.6086 69.3574 28.9987 69.0544 29.2827 68.66C29.5665 68.2615 29.6926 67.7724 29.661 67.1927Z" fill="url(#paint11_radial_135_265)"/>
<path d="M22.464 75.1586L23.8899 74.75L25.3776 79.9032L23.9517 80.3117L22.464 75.1586ZM32.6696 76.2842L22.4862 79.2017C21.9158 79.3651 21.4065 79.3761 20.9583 79.2345C20.506 79.0941 20.1274 78.8448 19.8224 78.4865C19.5135 78.1294 19.2893 77.7094 19.1499 77.2265C19.0471 76.8703 18.9888 76.557 18.9751 76.2867C18.9574 76.0175 18.9546 75.8148 18.9667 75.6784L20.5245 75.6821C20.5247 75.772 20.5279 75.8868 20.5339 76.0265C20.5359 76.1673 20.5638 76.3307 20.6175 76.5168C20.7421 76.9482 20.9381 77.2263 21.2057 77.351C21.4722 77.4718 21.8074 77.4743 22.2114 77.3585L32.1571 74.5091L32.6696 76.2842Z" fill="url(#paint12_radial_135_265)"/>
<path d="M27.2189 87.4491L28.4631 86.6431L31.292 90.9913L30.0478 91.7973L27.2189 87.4491ZM27.3815 91.867L26.3733 90.3174L33.9057 85.438C34.2063 85.2432 34.4035 85.0516 34.4971 84.8633C34.5873 84.6772 34.6139 84.4954 34.5771 84.3179C34.5345 84.1392 34.4581 83.9652 34.348 83.7959C34.2671 83.6715 34.1876 83.5683 34.1096 83.4862C34.0317 83.4041 33.9706 83.3405 33.9266 83.2954L35.0249 82.1861C35.1179 82.2535 35.2357 82.359 35.3781 82.5024C35.524 82.6436 35.6796 82.8375 35.8449 83.084C36.1171 83.4873 36.2918 83.9143 36.369 84.3652C36.4462 84.8162 36.3967 85.2534 36.2203 85.6771C36.044 86.1007 35.7156 86.4681 35.2352 86.7793L27.3815 91.867Z" fill="url(#paint13_radial_135_265)"/>
<path d="M38.9938 95.8467L42.913 91.8032L44.2428 93.0883L37.642 99.8985L36.3655 98.6649L37.4399 97.5565L37.3554 97.4748C36.8487 97.6836 36.3219 97.7354 35.7748 97.6303C35.2248 97.5224 34.6933 97.2206 34.1804 96.7249C33.7149 96.275 33.4017 95.7835 33.2409 95.2503C33.0773 94.72 33.0839 94.1711 33.2607 93.6036C33.4376 93.036 33.7982 92.4714 34.3425 91.9098L38.5411 87.5781L39.8709 88.8633L35.827 93.0354C35.3486 93.529 35.1037 94.0394 35.0923 94.5665C35.0781 95.0966 35.2964 95.5794 35.747 96.0149C36.0554 96.313 36.3941 96.5115 36.7632 96.6106C37.1293 96.7068 37.5067 96.6937 37.8953 96.5712C38.2781 96.4488 38.6442 96.2073 38.9938 95.8467Z" fill="url(#paint14_radial_135_265)"/>
<path d="M48.9947 95.7838C49.8196 96.2264 50.4356 96.7834 50.8427 97.4549C51.2442 98.128 51.4343 98.8722 51.413 99.6875C51.3861 100.504 51.14 101.346 50.6745 102.213C50.2149 103.068 49.6499 103.737 48.9796 104.218C48.3056 104.697 47.5814 104.964 46.8068 105.021C46.0287 105.075 45.2508 104.893 44.4731 104.476C44.0007 104.223 43.5846 103.899 43.225 103.505C42.8654 103.111 42.5989 102.653 42.4256 102.131C42.2523 101.608 42.207 101.025 42.2898 100.383C42.3706 99.7447 42.6145 99.0466 43.0216 98.2888L43.3312 97.7123L49.987 101.283L49.3326 102.502L44.274 99.7875C44.0442 100.215 43.9279 100.641 43.9251 101.065C43.9204 101.492 44.0245 101.886 44.2374 102.248C44.4468 102.608 44.7622 102.901 45.1837 103.127C45.6416 103.373 46.1018 103.475 46.5641 103.433C47.0209 103.393 47.4383 103.244 47.8165 102.984C48.189 102.726 48.4873 102.389 48.7112 101.972L49.2225 101.02C49.5224 100.462 49.6794 99.9343 49.6935 99.4375C49.7039 98.9387 49.5866 98.4904 49.3415 98.0926C49.0944 97.6985 48.7328 97.3737 48.2568 97.1183C47.9479 96.9526 47.6429 96.845 47.3417 96.7955C47.0387 96.7497 46.7467 96.7659 46.466 96.8441C46.1852 96.9223 45.9257 97.0656 45.6873 97.274L44.2936 96.169C44.6606 95.7821 45.0956 95.504 45.5984 95.3348C46.0957 95.1672 46.6348 95.1178 47.2158 95.1867C47.7912 95.2572 48.3841 95.4562 48.9947 95.7838Z" fill="url(#paint15_radial_135_265)"/>
<path d="M66.6186 100.842L65.2176 110.222L63.4623 109.958L63.6903 108.431L63.5741 108.414C63.3011 108.902 62.9209 109.257 62.4332 109.479C61.945 109.705 61.391 109.772 60.7712 109.679C60.1433 109.584 59.6392 109.359 59.2589 109.002C58.8746 108.644 58.6188 108.194 58.4915 107.65L58.3936 107.635C58.0946 108.102 57.6782 108.448 57.1445 108.671C56.6102 108.899 56.0047 108.962 55.3278 108.86C54.4756 108.732 53.8202 108.361 53.3617 107.747C52.899 107.132 52.7479 106.287 52.9085 105.213L53.8479 98.9224L55.6767 99.1973L54.7628 105.316C54.6679 105.951 54.7725 106.438 55.0765 106.775C55.3805 107.112 55.7731 107.316 56.2543 107.389C56.8496 107.478 57.3397 107.365 57.7247 107.048C58.1091 106.735 58.3439 106.294 58.429 105.724L59.3219 99.7451L61.1446 100.019L60.2133 106.254C60.1373 106.763 60.2352 107.196 60.5071 107.553C60.7789 107.911 61.1697 108.128 61.6793 108.204C62.0259 108.256 62.3597 108.213 62.6806 108.074C62.9969 107.938 63.2687 107.723 63.4962 107.428C63.7196 107.133 63.8629 106.774 63.9261 106.35L64.7898 100.567L66.6186 100.842Z" fill="url(#paint16_radial_135_265)"/>
<path d="M75.845 95.3777L78.4783 108.158L76.7098 108.519L76.3994 107.012L76.248 107.043C76.1829 107.258 76.0776 107.513 75.9321 107.807C75.7866 108.102 75.5578 108.38 75.2456 108.641C74.9342 108.906 74.4898 109.098 73.9124 109.216C73.1614 109.369 72.4521 109.316 71.7845 109.057C71.1169 108.798 70.5419 108.346 70.0597 107.7C69.5734 107.055 69.2268 106.231 69.0198 105.226C68.8128 104.222 68.8029 103.326 68.9901 102.54C69.1781 101.757 69.5249 101.113 70.0306 100.606C70.5371 100.103 71.1658 99.7754 71.9168 99.6221C72.4821 99.5068 72.9639 99.5072 73.3624 99.6235C73.7567 99.7406 74.0811 99.9057 74.3353 100.119C74.5896 100.332 74.7916 100.526 74.9413 100.701L75.0503 100.679L74.0342 95.7472L75.845 95.3777ZM75.7462 103.873C75.6116 103.219 75.3986 102.666 75.1075 102.212C74.8163 101.759 74.4623 101.429 74.0456 101.224C73.6298 101.023 73.1614 100.976 72.6405 101.082C72.0995 101.193 71.6768 101.428 71.3724 101.789C71.0689 102.153 70.8754 102.603 70.7919 103.137C70.7043 103.672 70.7246 104.25 70.8526 104.871C70.9789 105.484 71.1853 106.016 71.4716 106.466C71.7538 106.917 72.1078 107.247 72.5334 107.454C72.955 107.662 73.4383 107.711 73.9834 107.599C74.5083 107.492 74.9246 107.267 75.2323 106.922C75.5359 106.579 75.7307 106.146 75.8167 105.624C75.9027 105.102 75.8792 104.518 75.7462 103.873Z" fill="url(#paint17_radial_135_265)"/>
<path d="M81.7487 96.2747C82.5354 95.8594 83.3176 95.6771 84.0952 95.728C84.8728 95.7788 85.5956 96.0426 86.2635 96.5195C86.9315 96.9964 87.4954 97.6681 87.9551 98.5345C88.4168 99.4046 88.6584 100.251 88.68 101.074C88.7016 101.897 88.5149 102.643 88.1197 103.313C87.7246 103.983 87.1337 104.526 86.347 104.941C85.5603 105.356 84.7782 105.539 84.0006 105.488C83.223 105.437 82.4992 105.171 81.8293 104.691C81.1594 104.21 80.5936 103.535 80.132 102.665C79.6722 101.798 79.4325 100.956 79.4128 100.136C79.3931 99.3173 79.5809 98.5727 79.976 97.9027C80.3711 97.2327 80.9621 96.6901 81.7487 96.2747ZM82.4705 97.6483C81.9606 97.9175 81.6096 98.2752 81.4175 98.7215C81.2254 99.1678 81.168 99.6571 81.2453 100.19C81.319 100.724 81.4988 101.26 81.7847 101.799C82.0687 102.334 82.4114 102.783 82.8129 103.144C83.2126 103.511 83.6525 103.742 84.1324 103.838C84.6124 103.934 85.1073 103.848 85.6172 103.579C86.1307 103.308 86.4844 102.946 86.6782 102.494C86.8684 102.044 86.9257 101.55 86.8501 101.012C86.7727 100.48 86.5921 99.9462 86.3081 99.411C86.0223 98.8722 85.6804 98.4212 85.2825 98.0581C84.8811 97.6968 84.4413 97.4699 83.9633 97.3774C83.4817 97.2869 82.9841 97.3771 82.4705 97.6483Z" fill="url(#paint18_radial_135_265)"/>
<path d="M95.0533 102.964L87.0296 93.1647L88.4603 91.9974L96.484 101.796L95.0533 102.964Z" fill="url(#paint19_radial_135_265)"/>
<path d="M92.1696 88.0064C92.7652 87.2865 93.4324 86.7939 94.1713 86.5284C94.9106 86.2687 95.6785 86.23 96.475 86.4124C97.272 86.6006 98.0506 87.0083 98.8107 87.6357C99.5612 88.2551 100.107 88.9406 100.449 89.6922C100.788 90.4469 100.909 91.2089 100.813 91.9783C100.715 92.7508 100.385 93.4764 99.8231 94.155C99.482 94.5673 99.083 94.9104 98.6261 95.1845C98.1692 95.4585 97.6672 95.6286 97.1201 95.6947C96.573 95.7608 95.9922 95.6897 95.3778 95.4815C94.7665 95.2758 94.1285 94.8987 93.4638 94.3501L92.9582 93.9328L97.7639 88.1246L98.8325 89.0065L95.18 93.4209C95.5553 93.7307 95.9506 93.9289 96.3659 94.0155C96.7845 94.1048 97.1922 94.081 97.589 93.9442C97.9832 93.8106 98.3325 93.5599 98.6369 93.192C98.9675 92.7924 99.1575 92.3622 99.207 91.9014C99.257 91.4463 99.1915 91.008 99.0105 90.5864C98.83 90.1706 98.5569 89.8118 98.1912 89.5099L97.3563 88.8209C96.8665 88.4167 96.3791 88.1584 95.8939 88.0462C95.4061 87.9371 94.943 87.9632 94.5046 88.1244C94.0693 88.2881 93.6798 88.5778 93.3361 88.9932C93.1131 89.2628 92.9479 89.54 92.8405 89.825C92.7364 90.1126 92.6953 90.4016 92.7173 90.692C92.7393 90.9823 92.8294 91.2648 92.9876 91.5394L91.6304 92.6848C91.3221 92.2489 91.1339 91.768 91.0659 91.2422C90.9984 90.7222 91.0551 90.1846 91.2361 89.6295C91.4176 89.0802 91.7288 88.5392 92.1696 88.0064Z" fill="url(#paint20_radial_135_265)"/>
<path d="M104.31 88.0007L97.0463 80.9766L97.8547 79.174L107.935 79.9175L107.124 81.7256L99.469 80.926L99.4286 81.0161L105.121 86.1925L104.31 88.0007Z" fill="url(#paint21_radial_135_265)"/>
<path d="M99.9358 71.3522C100.077 70.4285 100.397 69.6635 100.894 69.057C101.395 68.4553 102.034 68.0289 102.811 67.7779C103.591 67.5315 104.468 67.4834 105.442 67.6334C106.404 67.7815 107.224 68.0911 107.903 68.5622C108.581 69.0373 109.076 69.63 109.389 70.3404C109.7 71.0548 109.79 71.8474 109.657 72.7182C109.576 73.2472 109.409 73.7464 109.158 74.2158C108.907 74.6852 108.564 75.0884 108.128 75.4254C107.693 75.7623 107.158 75.9986 106.524 76.1342C105.895 76.2704 105.154 76.2729 104.302 76.1417L103.654 76.0419L104.795 68.5896L106.164 68.8005L105.297 74.4645C105.778 74.5386 106.219 74.5065 106.62 74.3683C107.024 74.2307 107.362 74.0016 107.632 73.6809C107.902 73.3642 108.072 72.9699 108.145 72.4979C108.223 71.9852 108.165 71.5181 107.971 71.0967C107.781 70.68 107.499 70.3368 107.128 70.0672C106.76 69.8022 106.341 69.6336 105.872 69.5614L104.803 69.3967C104.175 69.3 103.624 69.3277 103.151 69.4796C102.676 69.6356 102.292 69.8951 101.999 70.2581C101.71 70.6217 101.524 71.07 101.443 71.6031C101.39 71.9489 101.391 72.2718 101.445 72.5717C101.503 72.8722 101.616 73.1416 101.784 73.3799C101.952 73.6182 102.174 73.8148 102.451 73.9699L101.875 75.6492C101.386 75.4324 100.978 75.1154 100.65 74.6983C100.325 74.286 100.098 73.7949 99.9681 73.2252C99.8419 72.6601 99.8311 72.0358 99.9358 71.3522Z" fill="url(#paint22_radial_135_265)"/>
<path d="M100.124 59.8645L99.495 55.8173L112.009 53.8959L112.658 58.0713C112.848 59.2963 112.761 60.3868 112.397 61.3427C112.036 62.2981 111.426 63.0813 110.566 63.6926C109.71 64.3072 108.633 64.7143 107.334 64.9139C106.03 65.114 104.873 65.0479 103.862 64.7156C102.852 64.3874 102.024 63.8144 101.38 62.9967C100.74 62.1783 100.321 61.1342 100.124 59.8645ZM101.438 57.4502L101.758 59.5074C101.906 60.4597 102.208 61.2237 102.664 61.7995C103.125 62.3746 103.722 62.7663 104.455 62.9746C105.192 63.1823 106.055 63.2101 107.045 63.0581C108.027 62.9074 108.836 62.6228 109.471 62.2044C110.108 61.79 110.555 61.2484 110.814 60.5794C111.073 59.9105 111.132 59.1203 110.99 58.2087L110.652 56.0355L101.438 57.4502Z" fill="url(#paint23_radial_135_265)"/>
<defs>
<radialGradient id="paint0_radial_135_265" cx="0" cy="0" r="1" gradientUnits="userSpaceOnUse" gradientTransform="translate(102.247 45.0189) rotate(158.138) scale(14.505 11.6366)">
<stop stop-color="#13132F"/>
<stop offset="0.901042" stop-color="#0707B5"/>
</radialGradient>
<radialGradient id="paint1_radial_135_265" cx="0" cy="0" r="1" gradientUnits="userSpaceOnUse" gradientTransform="translate(95.2122 35.8458) rotate(141.966) scale(14.472 10.6028)">
<stop stop-color="#13132F"/>
<stop offset="0.901042" stop-color="#0707B5"/>
</radialGradient>
<radialGradient id="paint2_radial_135_265" cx="0" cy="0" r="1" gradientUnits="userSpaceOnUse" gradientTransform="translate(89.2537 30.9593) rotate(127.382) scale(14.3777 5.33621)">
<stop stop-color="#13132F"/>
<stop offset="0.901042" stop-color="#0707B5"/>
</radialGradient>
<radialGradient id="paint3_radial_135_265" cx="0" cy="0" r="1" gradientUnits="userSpaceOnUse" gradientTransform="translate(83.7517 27.8164) rotate(120.392) scale(14.4046 7.4567)">
<stop stop-color="#13132F"/>
<stop offset="0.901042" stop-color="#0707B5"/>
</radialGradient>
<radialGradient id="paint4_radial_135_265" cx="0" cy="0" r="1" gradientUnits="userSpaceOnUse" gradientTransform="translate(74.4826 24.674) rotate(109.905) scale(14.4891 11.6493)">
<stop stop-color="#13132F"/>
<stop offset="0.901042" stop-color="#0707B5"/>
</radialGradient>
<radialGradient id="paint5_radial_135_265" cx="0" cy="0" r="1" gradientUnits="userSpaceOnUse" gradientTransform="translate(59.6464 24.1958) rotate(86.5064) scale(14.4094 7.45426)">
<stop stop-color="#13132F"/>
<stop offset="0.901042" stop-color="#0707B5"/>
</radialGradient>
<radialGradient id="paint6_radial_135_265" cx="0" cy="0" r="1" gradientUnits="userSpaceOnUse" gradientTransform="translate(53.7865 25.4891) rotate(76.5831) scale(14.3853 5.33336)">
<stop stop-color="#13132F"/>
<stop offset="0.901042" stop-color="#0707B5"/>
</radialGradient>
<radialGradient id="paint7_radial_135_265" cx="0" cy="0" r="1" gradientUnits="userSpaceOnUse" gradientTransform="translate(46.1583 28.6044) rotate(69.3103) scale(14.478 10.5984)">
<stop stop-color="#13132F"/>
<stop offset="0.901042" stop-color="#0707B5"/>
</radialGradient>
<radialGradient id="paint8_radial_135_265" cx="0" cy="0" r="1" gradientUnits="userSpaceOnUse" gradientTransform="translate(38.7708 33.5782) rotate(54.5973) scale(14.4251 7.44611)">
<stop stop-color="#13132F"/>
<stop offset="0.901042" stop-color="#0707B5"/>
</radialGradient>
<radialGradient id="paint9_radial_135_265" cx="0" cy="0" r="1" gradientUnits="userSpaceOnUse" gradientTransform="translate(29.4869 44.6622) rotate(37.216) scale(14.4924 10.5879)">
<stop stop-color="#13132F"/>
<stop offset="0.901042" stop-color="#0707B5"/>
</radialGradient>
<radialGradient id="paint10_radial_135_265" cx="0" cy="0" r="1" gradientUnits="userSpaceOnUse" gradientTransform="translate(24.5726 58.065) rotate(15.2739) scale(14.4337 7.4417)">
<stop stop-color="#13132F"/>
<stop offset="0.901042" stop-color="#0707B5"/>
</radialGradient>
<radialGradient id="paint11_radial_135_265" cx="0" cy="0" r="1" gradientUnits="userSpaceOnUse" gradientTransform="translate(23.9501 67.5458) rotate(5.02931) scale(14.5169 11.627)">
<stop stop-color="#13132F"/>
<stop offset="0.901042" stop-color="#0707B5"/>
</radialGradient>
<radialGradient id="paint12_radial_135_265" cx="0" cy="0" r="1" gradientUnits="userSpaceOnUse" gradientTransform="translate(25.4654 76.8505) rotate(-10.8364) scale(14.4254 7.446)">
<stop stop-color="#13132F"/>
<stop offset="0.901042" stop-color="#0707B5"/>
</radialGradient>
<radialGradient id="paint13_radial_135_265" cx="0" cy="0" r="1" gradientUnits="userSpaceOnUse" gradientTransform="translate(30.5352 88.1222) rotate(-27.7781) scale(14.4167 7.45048)">
<stop stop-color="#13132F"/>
<stop offset="0.901042" stop-color="#0707B5"/>
</radialGradient>
<radialGradient id="paint14_radial_135_265" cx="0" cy="0" r="1" gradientUnits="userSpaceOnUse" gradientTransform="translate(36.4749 95.4172) rotate(-37.8159) scale(14.4969 11.6431)">
<stop stop-color="#13132F"/>
<stop offset="0.901042" stop-color="#0707B5"/>
</radialGradient>
<radialGradient id="paint15_radial_135_265" cx="0" cy="0" r="1" gradientUnits="userSpaceOnUse" gradientTransform="translate(45.6782 102.248) rotate(-53.6741) scale(14.4911 11.6478)">
<stop stop-color="#13132F"/>
<stop offset="0.901042" stop-color="#0707B5"/>
</radialGradient>
<radialGradient id="paint16_radial_135_265" cx="0" cy="0" r="1" gradientUnits="userSpaceOnUse" gradientTransform="translate(59.3216 106.899) rotate(-69.8317) scale(14.6475 16.7613)">
<stop stop-color="#13132F"/>
<stop offset="0.901042" stop-color="#0707B5"/>
</radialGradient>
<radialGradient id="paint17_radial_135_265" cx="0" cy="0" r="1" gradientUnits="userSpaceOnUse" gradientTransform="translate(74.1158 106.588) rotate(-93.5658) scale(14.4946 11.645)">
<stop stop-color="#13132F"/>
<stop offset="0.901042" stop-color="#0707B5"/>
</radialGradient>
<radialGradient id="paint18_radial_135_265" cx="0" cy="0" r="1" gradientUnits="userSpaceOnUse" gradientTransform="translate(85.197 102.681) rotate(-109.883) scale(14.5024 11.6387)">
<stop stop-color="#13132F"/>
<stop offset="0.901042" stop-color="#0707B5"/>
</radialGradient>
<radialGradient id="paint19_radial_135_265" cx="0" cy="0" r="1" gradientUnits="userSpaceOnUse" gradientTransform="translate(92.0822 98.1875) rotate(-125.629) scale(14.3967 5.32916)">
<stop stop-color="#13132F"/>
<stop offset="0.901042" stop-color="#0707B5"/>
</radialGradient>
<radialGradient id="paint20_radial_135_265" cx="0" cy="0" r="1" gradientUnits="userSpaceOnUse" gradientTransform="translate(97.8703 92.5347) rotate(-132.41) scale(14.5136 11.6297)">
<stop stop-color="#13132F"/>
<stop offset="0.901042" stop-color="#0707B5"/>
</radialGradient>
<radialGradient id="paint21_radial_135_265" cx="0" cy="0" r="1" gradientUnits="userSpaceOnUse" gradientTransform="translate(104.002 82.7848) rotate(-148.528) scale(14.4937 10.587)">
<stop stop-color="#13132F"/>
<stop offset="0.901042" stop-color="#0707B5"/>
</radialGradient>
<radialGradient id="paint22_radial_135_265" cx="0" cy="0" r="1" gradientUnits="userSpaceOnUse" gradientTransform="translate(107.148 72.3242) rotate(-163.192) scale(14.5192 11.6252)">
<stop stop-color="#13132F"/>
<stop offset="0.901042" stop-color="#0707B5"/>
</radialGradient>
<radialGradient id="paint23_radial_135_265" cx="0" cy="0" r="1" gradientUnits="userSpaceOnUse" gradientTransform="translate(107.223 59.4344) rotate(-179.231) scale(14.5722 13.689)">
<stop stop-color="#13132F"/>
<stop offset="0.901042" stop-color="#0707B5"/>
</radialGradient>
</defs>
</svg>
