<svg width="396" height="396" viewBox="0 0 396 396" fill="none" xmlns="http://www.w3.org/2000/svg">
<g opacity="0.1">
<path d="M74.3899 214.064C74.8697 217.395 74.5712 220.366 73.4946 222.977C72.4012 225.576 70.65 227.716 68.2411 229.396C65.8153 231.064 62.8491 232.151 59.3423 232.656C55.8796 233.155 52.7347 232.95 49.9076 232.039C47.0784 231.114 44.7548 229.592 42.9368 227.473C41.1167 225.339 39.9805 222.702 39.5282 219.562C39.2534 217.654 39.3026 215.76 39.6756 213.879C40.0487 211.998 40.8077 210.248 41.9525 208.63C43.0974 207.013 44.6891 205.637 46.7276 204.505C48.7515 203.374 51.2967 202.588 54.3633 202.146L56.6962 201.809L60.5672 228.683L55.6372 229.394L52.6951 208.969C50.9638 209.219 49.4812 209.792 48.2474 210.689C46.999 211.587 46.0779 212.731 45.4841 214.12C44.8882 215.494 44.7129 217.032 44.9581 218.734C45.2244 220.583 45.9117 222.131 47.0201 223.379C48.1117 224.615 49.4377 225.502 50.9981 226.041C52.5417 226.567 54.1571 226.709 55.8445 226.466L59.6961 225.91C61.9557 225.584 63.8207 224.911 65.2912 223.89C66.7596 222.855 67.8084 221.558 68.4377 219.999C69.0522 218.443 69.221 216.704 68.9441 214.782C68.7645 213.534 68.4246 212.423 67.9245 211.446C67.4098 210.472 66.739 209.663 65.9122 209.018C65.0855 208.373 64.1154 207.929 63.0019 207.685L63.2271 201.295C65.1331 201.529 66.8686 202.193 68.4339 203.285C69.9823 204.365 71.2775 205.818 72.3195 207.645C73.3447 209.459 74.0348 211.599 74.3899 214.064Z" fill="url(#paint0_radial_147_339)"/>
<path d="M83.0242 246.222C84.3494 249.251 84.8046 252.158 84.3898 254.945C83.9554 257.725 82.7784 260.231 80.8587 262.463C78.939 264.695 76.4107 266.498 73.2738 267.872C70.0961 269.263 67.0304 269.893 64.0767 269.763C61.1094 269.638 58.4646 268.789 56.1423 267.217C53.8199 265.644 52.014 263.384 50.7245 260.437C49.6846 258.061 49.1989 255.749 49.2674 253.502C49.3224 251.26 49.8879 249.225 50.964 247.394C52.0342 245.55 53.5741 244.058 55.5839 242.919L58.1778 248.848C56.8538 249.816 55.9177 251.116 55.3695 252.747C54.8154 254.366 54.9633 256.146 55.813 258.088C56.5559 259.785 57.6547 261.076 59.1095 261.961C60.5449 262.837 62.2386 263.269 64.1908 263.256C66.1293 263.248 68.2122 262.757 70.4392 261.782C72.7206 260.783 74.5381 259.575 75.8918 258.157C77.2454 256.739 78.1009 255.199 78.4581 253.537C78.8093 251.862 78.6076 250.162 77.8529 248.438C77.3478 247.283 76.6797 246.33 75.8487 245.577C74.9982 244.816 74.0327 244.292 72.9522 244.005C71.8657 243.704 70.7025 243.671 69.4625 243.907L66.8686 237.978C68.9871 237.31 71.0814 237.178 73.1515 237.582C75.2217 237.986 77.1158 238.913 78.8338 240.362C80.5459 241.797 81.9427 243.75 83.0242 246.222Z" fill="url(#paint1_radial_147_339)"/>
<path d="M96.4484 271.616L68.3186 290.989L64.5491 285.512L92.679 266.139L96.4484 271.616ZM62.0746 291.212C62.7301 292.165 62.9758 293.201 62.8116 294.323C62.6267 295.44 62.0887 296.305 61.1974 296.919C60.294 297.541 59.2937 297.735 58.1965 297.501C57.0788 297.263 56.1921 296.667 55.5366 295.715C54.881 294.762 54.6457 293.727 54.8305 292.61C54.9947 291.489 55.5286 290.617 56.432 289.995C57.3233 289.381 58.3278 289.194 59.4456 289.432C60.5427 289.666 61.419 290.26 62.0746 291.212Z" fill="url(#paint2_radial_147_339)"/>
<path d="M111.08 288.691L86.1004 311.985L81.719 307.284L85.6872 303.583L85.4446 303.323C83.6757 304.121 81.8707 304.305 80.0296 303.873C78.1676 303.44 76.5544 302.492 75.1899 301.028C74.907 300.724 74.5843 300.356 74.2219 299.924C73.8494 299.481 73.5683 299.125 73.3784 298.856L78.0296 294.519C78.1573 294.764 78.4211 295.167 78.8209 295.727C79.21 296.296 79.6369 296.83 80.1018 297.329C81.1732 298.479 82.3722 299.276 83.699 299.721C85.0048 300.166 86.3285 300.249 87.6701 299.971C89.0009 299.703 90.2084 299.063 91.2926 298.052L106.547 283.827L111.08 288.691Z" fill="url(#paint3_radial_147_339)"/>
<path d="M147.243 299.549L121.238 338.656L115.833 335.059L118.899 330.448L118.436 330.14C117.721 330.519 116.802 330.897 115.68 331.272C114.559 331.647 113.268 331.768 111.808 331.633C110.341 331.512 108.724 330.863 106.959 329.689C104.664 328.162 103.001 326.218 101.97 323.859C100.94 321.5 100.639 318.887 101.068 316.02C101.484 313.146 102.714 310.171 104.758 307.098C106.802 304.024 109.066 301.729 111.552 300.213C114.029 298.71 116.557 297.961 119.134 297.967C121.704 297.985 124.136 298.758 126.432 300.285C128.16 301.435 129.38 302.665 130.093 303.976C130.793 305.279 131.193 306.525 131.293 307.713C131.393 308.901 131.408 309.909 131.339 310.735L131.673 310.957L141.708 295.866L147.243 299.549ZM125.27 320.826C126.6 318.826 127.476 316.88 127.897 314.988C128.318 313.096 128.263 311.359 127.731 309.776C127.191 308.206 126.125 306.891 124.532 305.832C122.879 304.732 121.205 304.25 119.511 304.388C117.809 304.537 116.17 305.182 114.593 306.323C113.003 307.455 111.576 308.972 110.312 310.873C109.064 312.749 108.227 314.623 107.802 316.495C107.364 318.358 107.419 320.095 107.968 321.707C108.504 323.31 109.605 324.666 111.272 325.774C112.876 326.842 114.509 327.332 116.169 327.244C117.818 327.147 119.418 326.548 120.971 325.444C122.524 324.34 123.957 322.801 125.27 320.826Z" fill="url(#paint4_radial_147_339)"/>
<path d="M176.256 321.853L168.466 355.108L162.209 353.641L163.446 348.359L163.1 348.277C162.075 349.925 160.677 351.082 158.907 351.748C157.119 352.425 155.251 352.536 153.302 352.079C152.898 351.984 152.425 351.858 151.884 351.701C151.327 351.54 150.896 351.401 150.588 351.283L152.039 345.091C152.282 345.224 152.725 345.412 153.369 345.654C154.009 345.911 154.661 346.117 155.325 346.272C156.855 346.631 158.295 346.626 159.645 346.257C160.977 345.899 162.123 345.232 163.083 344.254C164.04 343.29 164.687 342.087 165.025 340.644L169.783 320.335L176.256 321.853Z" fill="url(#paint5_radial_147_339)"/>
<path d="M190.684 323.397L187.861 357.435L181.235 356.886L184.058 322.847L190.684 323.397ZM184.079 362.41C185.231 362.505 186.189 362.972 186.953 363.808C187.7 364.659 188.029 365.623 187.94 366.702C187.849 367.795 187.366 368.692 186.489 369.393C185.597 370.107 184.575 370.417 183.423 370.321C182.27 370.225 181.32 369.752 180.573 368.902C179.809 368.065 179.473 367.1 179.563 366.007C179.653 364.928 180.144 364.032 181.036 363.317C181.912 362.617 182.926 362.314 184.079 362.41Z" fill="url(#paint6_radial_147_339)"/>
<path d="M214.035 321.839C216.186 321.605 218.175 321.793 220 322.4C221.827 323.022 223.332 324.044 224.515 325.467C225.683 326.891 226.388 328.716 226.629 330.941C226.836 332.857 226.638 334.474 226.036 335.792C225.433 337.11 224.544 338.198 223.37 339.056C222.195 339.914 220.854 340.611 219.346 341.147C217.839 341.683 216.292 342.134 214.706 342.5C212.698 342.956 211.068 343.327 209.817 343.611C208.567 343.911 207.674 344.269 207.137 344.685C206.601 345.101 206.375 345.707 206.462 346.503L206.478 346.657C206.687 348.588 207.395 350.025 208.6 350.968C209.791 351.912 211.455 352.269 213.592 352.037C215.817 351.796 217.518 351.112 218.693 349.986C219.855 348.876 220.615 347.697 220.972 346.451L227.337 347.192C226.824 349.335 225.928 351.117 224.651 352.538C223.36 353.976 221.817 355.082 220.022 355.858C218.229 356.649 216.308 357.155 214.26 357.378C212.904 357.525 211.449 357.518 209.896 357.358C208.33 357.215 206.838 356.795 205.421 356.099C203.989 355.404 202.761 354.322 201.737 352.853C200.714 351.398 200.069 349.432 199.801 346.956L197.359 324.407L203.814 323.707L204.317 328.35L204.582 328.321C204.917 327.42 205.467 326.51 206.233 325.592C206.998 324.674 208.022 323.87 209.304 323.179C210.586 322.488 212.163 322.042 214.035 321.839ZM213.172 327.3C211.345 327.498 209.822 328.029 208.603 328.891C207.369 329.756 206.477 330.807 205.925 332.045C205.36 333.299 205.15 334.597 205.295 335.938L205.769 340.315C205.979 340.054 206.412 339.783 207.068 339.503C207.71 339.24 208.451 338.988 209.29 338.748C210.13 338.523 210.95 338.307 211.747 338.101C212.547 337.91 213.215 337.748 213.753 337.616C215.017 337.314 216.159 336.915 217.179 336.417C218.184 335.92 218.964 335.276 219.52 334.485C220.062 333.711 220.269 332.734 220.142 331.555C219.965 329.919 219.226 328.746 217.927 328.037C216.629 327.343 215.044 327.097 213.172 327.3Z" fill="url(#paint7_radial_147_339)"/>
<path d="M240.111 352.444L238.4 347.389L256.68 341.195L258.392 346.25L240.111 352.444ZM242.425 315.597L254.649 351.697C255.333 353.719 255.459 355.547 255.026 357.181C254.598 358.828 253.766 360.23 252.529 361.384C251.297 362.553 249.825 363.428 248.112 364.008C246.848 364.436 245.731 364.697 244.762 364.791C243.796 364.899 243.068 364.942 242.575 364.921L242.324 359.325C242.647 359.309 243.059 359.279 243.561 359.234C244.067 359.204 244.65 359.077 245.31 358.853C246.84 358.335 247.807 357.584 248.21 356.603C248.599 355.625 248.551 354.421 248.066 352.989L236.128 317.731L242.425 315.597Z" fill="url(#paint8_radial_147_339)"/>
<path d="M277.417 294.441C279.115 293.099 280.898 292.2 282.767 291.743C284.645 291.299 286.462 291.364 288.22 291.94C289.967 292.525 291.534 293.696 292.921 295.453C294.115 296.965 294.808 298.44 294.998 299.877C295.188 301.314 295.014 302.708 294.475 304.059C293.937 305.41 293.172 306.714 292.18 307.97C291.189 309.226 290.119 310.43 288.97 311.583C287.512 313.038 286.329 314.218 285.42 315.125C284.521 316.043 283.955 316.821 283.722 317.459C283.489 318.097 283.62 318.73 284.116 319.358L284.213 319.48C285.416 321.004 286.779 321.845 288.301 322.003C289.812 322.169 291.41 321.586 293.097 320.254C294.853 318.866 295.93 317.382 296.326 315.803C296.72 314.245 296.737 312.843 296.377 311.597L302.161 308.84C302.866 310.929 303.055 312.914 302.728 314.797C302.399 316.701 301.681 318.459 300.574 320.07C299.476 321.694 298.119 323.144 296.502 324.422C295.432 325.267 294.197 326.035 292.796 326.726C291.394 327.438 289.907 327.875 288.337 328.04C286.755 328.213 285.139 327.949 283.491 327.249C281.852 326.561 280.26 325.239 278.717 323.285L264.66 305.484L269.755 301.459L272.649 305.123L272.858 304.958C272.663 304.017 272.645 302.954 272.805 301.769C272.965 300.584 273.404 299.359 274.123 298.092C274.841 296.825 275.939 295.608 277.417 294.441ZM279.59 299.525C278.148 300.665 277.14 301.924 276.566 303.303C275.981 304.691 275.784 306.056 275.975 307.398C276.163 308.761 276.675 309.971 277.512 311.03L280.24 314.485C280.279 314.152 280.502 313.693 280.908 313.107C281.312 312.542 281.806 311.935 282.389 311.286C282.98 310.648 283.56 310.03 284.126 309.431C284.701 308.844 285.181 308.352 285.566 307.953C286.476 307.026 287.231 306.08 287.83 305.116C288.417 304.161 288.735 303.201 288.785 302.235C288.833 301.291 288.489 300.353 287.754 299.422C286.734 298.131 285.485 297.531 284.008 297.621C282.54 297.723 281.067 298.358 279.59 299.525Z" fill="url(#paint9_radial_147_339)"/>
<path d="M308.371 258.501L337.367 276.552L333.972 282.008L329.366 279.141L329.178 279.443C330.41 280.943 331.057 282.638 331.121 284.529C331.189 286.44 330.694 288.245 329.637 289.944C329.418 290.296 329.147 290.704 328.824 291.167C328.493 291.642 328.223 292.006 328.013 292.26L322.614 288.898C322.818 288.711 323.138 288.351 323.574 287.819C324.022 287.295 324.426 286.744 324.786 286.165C325.617 284.83 326.073 283.465 326.157 282.067C326.246 280.691 325.981 279.391 325.362 278.167C324.757 276.952 323.824 275.953 322.566 275.169L304.859 264.146L308.371 258.501Z" fill="url(#paint10_radial_147_339)"/>
<path d="M316.05 239.07C317.077 236.038 318.668 233.626 320.824 231.837C322.98 230.047 325.519 228.951 328.441 228.549C331.364 228.146 334.496 228.511 337.837 229.644C341.193 230.781 343.915 232.4 346.005 234.502C348.095 236.603 349.452 239.02 350.076 241.751C350.701 244.483 350.499 247.365 349.472 250.398C348.444 253.431 346.853 255.842 344.697 257.631C342.541 259.421 339.995 260.514 337.059 260.912C334.122 261.31 330.976 260.94 327.621 259.803C324.279 258.671 321.571 257.056 319.495 254.959C317.419 252.863 316.069 250.449 315.445 247.717C314.821 244.985 315.022 242.103 316.05 239.07ZM321.328 240.883C320.663 242.849 320.63 244.653 321.232 246.297C321.833 247.941 322.893 249.365 324.41 250.568C325.923 251.785 327.719 252.745 329.796 253.45C331.86 254.149 333.863 254.476 335.804 254.429C337.754 254.401 339.474 253.92 340.965 252.985C342.455 252.05 343.534 250.6 344.199 248.634C344.87 246.655 344.9 244.834 344.289 243.171C343.674 241.522 342.603 240.087 341.076 238.865C339.558 237.662 337.768 236.711 335.704 236.011C333.626 235.307 331.619 234.971 329.683 235.004C327.742 235.05 326.033 235.543 324.556 236.483C323.075 237.436 321.999 238.903 321.328 240.883Z" fill="url(#paint11_radial_147_339)"/>
<path d="M356.044 223.766L350.734 223.231L352.665 204.027L357.975 204.561L356.044 223.766ZM323.462 206.408L361.384 210.223C363.508 210.437 365.224 211.079 366.532 212.149C367.854 213.221 368.785 214.558 369.324 216.162C369.878 217.767 370.064 219.47 369.883 221.269C369.749 222.597 369.524 223.721 369.208 224.643C368.907 225.566 368.645 226.248 368.422 226.687L363.223 224.6C363.343 224.299 363.486 223.911 363.653 223.436C363.835 222.963 363.961 222.379 364.03 221.686C364.192 220.078 363.909 218.888 363.183 218.114C362.454 217.356 361.338 216.901 359.834 216.749L322.797 213.023L323.462 206.408Z" fill="url(#paint12_radial_147_339)"/>
<path d="M356.615 176.234L351.38 177.271L347.757 158.97L352.992 157.932L356.615 176.234ZM361.991 161.25L363.282 167.772L331.588 174.051C330.323 174.302 329.408 174.68 328.843 175.185C328.293 175.687 327.96 176.259 327.845 176.901C327.748 177.555 327.77 178.238 327.911 178.951C328.015 179.474 328.142 179.925 328.292 180.304C328.443 180.682 328.561 180.976 328.648 181.185L323.494 183.43C323.273 183.081 323.021 182.572 322.738 181.903C322.44 181.236 322.18 180.381 321.958 179.337C321.589 177.627 321.578 175.967 321.924 174.357C322.27 172.747 323.022 171.351 324.178 170.17C325.335 168.988 326.923 168.198 328.945 167.797L361.991 161.25Z" fill="url(#paint13_radial_147_339)"/>
<path d="M328.513 132.389L310.009 140.688L307.29 134.62L338.455 120.644L341.064 126.468L335.992 128.743L336.165 129.128C338.136 129.105 339.965 129.634 341.651 130.713C343.343 131.807 344.714 133.524 345.763 135.864C346.714 137.988 347.102 140.048 346.924 142.045C346.76 144.035 346.003 145.862 344.652 147.523C343.301 149.185 341.341 150.592 338.771 151.745L318.948 160.635L316.229 154.567L335.321 146.005C337.58 144.992 339.082 143.612 339.826 141.865C340.583 140.112 340.501 138.207 339.58 136.151C338.949 134.744 338.084 133.629 336.985 132.806C335.891 131.997 334.613 131.538 333.151 131.43C331.709 131.33 330.163 131.649 328.513 132.389Z" fill="url(#paint14_radial_147_339)"/>
<path d="M294.981 119.189C292.819 116.61 291.508 113.927 291.048 111.139C290.608 108.354 290.97 105.613 292.133 102.915C293.316 100.22 295.265 97.7334 297.98 95.4564C300.66 93.208 303.442 91.7263 306.324 91.0111C309.216 90.3074 311.993 90.3775 314.654 91.2216C317.325 92.0771 319.679 93.7204 321.717 96.1516C322.956 97.6285 323.911 99.2648 324.585 101.06C325.258 102.856 325.534 104.743 325.413 106.722C325.292 108.7 324.664 110.708 323.527 112.744C322.402 114.772 320.653 116.781 318.279 118.772L316.473 120.287L299.031 99.4796L302.847 96.2785L316.104 112.093C317.444 110.968 318.403 109.7 318.979 108.288C319.567 106.866 319.747 105.408 319.521 103.915C319.304 102.433 318.643 101.033 317.538 99.7155C316.338 98.284 314.938 97.3297 313.339 96.8525C311.76 96.3771 310.166 96.3213 308.556 96.6851C306.967 97.0507 305.519 97.7813 304.213 98.8769L301.232 101.378C299.483 102.845 298.252 104.4 297.539 106.042C296.837 107.696 296.628 109.351 296.914 111.007C297.211 112.654 297.984 114.222 299.231 115.71C300.041 116.676 300.915 117.442 301.854 118.008C302.805 118.565 303.801 118.9 304.844 119.013C305.886 119.125 306.944 118.992 308.019 118.613L311.193 124.164C309.45 124.969 307.625 125.319 305.719 125.215C303.835 125.113 301.968 124.559 300.121 123.555C298.294 122.553 296.58 121.097 294.981 119.189Z" fill="url(#paint15_radial_147_339)"/>
<path d="M242.803 78.7026L260.038 49.2141L265.547 52.4357L262.742 57.2353L263.106 57.4485C264.671 56.1823 266.416 55.5026 268.342 55.4096C270.275 55.3038 272.214 55.8196 274.159 56.9571C276.13 58.1095 277.512 59.5356 278.304 61.2354C279.109 62.9427 279.36 64.7897 279.058 66.7765L279.365 66.9561C280.989 65.7934 282.842 65.1939 284.923 65.1576C287.012 65.1085 289.119 65.7051 291.243 66.9473C293.918 68.5113 295.61 70.6256 296.319 73.29C297.041 75.9619 296.415 78.9873 294.44 82.3662L282.883 102.14L277.144 98.7842L288.387 79.5475C289.553 77.5509 289.855 75.7866 289.291 74.2546C288.727 72.7226 287.69 71.5151 286.179 70.632C284.311 69.5395 282.522 69.2661 280.812 69.8118C279.11 70.3447 277.735 71.5071 276.688 73.299L265.704 92.0941L259.983 88.749L271.439 69.1476C272.374 67.5477 272.627 65.9696 272.197 64.4132C271.767 62.8568 270.753 61.6109 269.153 60.6755C268.065 60.0394 266.893 59.7399 265.635 59.7771C264.397 59.8089 263.201 60.1657 262.047 60.8476C260.906 61.5369 259.946 62.5471 259.168 63.8782L248.543 82.0589L242.803 78.7026Z" fill="url(#paint16_radial_147_339)"/>
<path d="M204.562 84.6298L212.878 38.4084L219.268 39.5586L218.288 45.008L218.835 45.1065C219.34 44.4745 220.033 43.7632 220.914 42.9727C221.794 42.1822 222.93 41.5584 224.323 41.1011C225.718 40.6293 227.459 40.5811 229.546 40.9567C232.259 41.4451 234.558 42.5668 236.441 44.3217C238.325 46.0766 239.639 48.3543 240.386 51.1547C241.147 53.9577 241.2 57.1757 240.547 60.8087C239.893 64.4416 238.727 67.4476 237.049 69.8266C235.373 72.1911 233.352 73.8833 230.984 74.9031C228.619 75.9084 226.08 76.1668 223.366 75.6783C221.323 75.3106 219.715 74.6671 218.539 73.7476C217.379 72.8308 216.517 71.8471 215.953 70.7966C215.388 69.7461 214.974 68.828 214.708 68.0421L214.314 67.9712L211.105 85.8076L204.562 84.6298ZM216.266 56.3704C215.841 58.734 215.811 60.8675 216.176 62.7709C216.542 64.6743 217.283 66.2463 218.401 67.4867C219.521 68.7126 221.022 69.4949 222.904 69.8337C224.859 70.1856 226.586 69.9618 228.086 69.1622C229.588 68.3481 230.836 67.1041 231.83 65.4304C232.838 63.7592 233.545 61.8002 233.949 59.5533C234.348 57.3356 234.371 55.2837 234.017 53.3975C233.679 51.5139 232.937 49.942 231.793 48.6817C230.664 47.424 229.114 46.6179 227.145 46.2634C225.248 45.922 223.555 46.1218 222.066 46.863C220.592 47.6068 219.362 48.7937 218.375 50.4237C217.389 52.0537 216.686 54.036 216.266 56.3704Z" fill="url(#paint17_radial_147_339)"/>
<path d="M185.945 73.7699C182.761 74.1104 179.905 73.6779 177.376 72.4724C174.847 71.2669 172.786 69.4224 171.194 66.9389C169.601 64.4554 168.618 61.4596 168.243 57.9513C167.867 54.4284 168.193 51.2774 169.223 48.4986C170.253 45.7197 171.877 43.4738 174.094 41.7607C176.312 40.0475 179.012 39.0207 182.196 38.6802C185.38 38.3397 188.236 38.7722 190.766 39.9777C193.295 41.1832 195.356 43.0351 196.95 45.5333C198.544 48.0316 199.529 51.0422 199.905 54.5651C200.28 58.0734 199.952 61.2096 198.92 63.9737C197.889 66.7378 196.264 68.9764 194.047 70.6895C191.83 72.4026 189.129 73.4294 185.945 73.7699ZM185.374 68.2178C187.438 67.9971 189.09 67.2688 190.329 66.033C191.569 64.7971 192.416 63.238 192.871 61.3556C193.34 59.4716 193.459 57.4388 193.225 55.2572C192.994 53.0903 192.45 51.1358 191.593 49.3937C190.749 47.6352 189.59 46.2757 188.116 45.3152C186.641 44.3547 184.872 43.9848 182.809 44.2055C180.73 44.4278 179.065 45.165 177.812 46.4172C176.574 47.6677 175.721 49.2424 175.253 51.1412C174.798 53.0236 174.687 55.0482 174.918 57.2151C175.151 59.3967 175.689 61.3593 176.531 63.103C177.388 64.8452 178.553 66.1891 180.026 67.1349C181.513 68.0791 183.296 68.44 185.374 68.2178Z" fill="url(#paint18_radial_147_339)"/>
<path d="M150.41 33.7107L164.079 77.1517L157.737 79.1485L144.069 35.7076L150.41 33.7107Z" fill="url(#paint19_radial_147_339)"/>
<path d="M139.934 87.59C136.981 89.2034 134.093 89.9619 131.271 89.8654C128.454 89.7488 125.838 88.8552 123.423 87.1848C121.013 85.4942 118.96 83.094 117.262 79.9843C115.586 76.9136 114.68 73.8945 114.547 70.927C114.426 67.9523 115.041 65.2429 116.392 62.7987C117.756 60.3473 119.83 58.3611 122.614 56.8401C124.305 55.9162 126.097 55.3004 127.99 54.9928C129.882 54.6851 131.786 54.7852 133.702 55.2928C135.617 55.8004 137.461 56.8116 139.234 58.3262C141 59.8279 142.625 61.9384 144.11 64.6578L145.239 66.7266L121.412 79.7439L119.026 75.3721L137.135 65.4785C136.297 63.9432 135.242 62.754 133.971 61.9112C132.693 61.0553 131.3 60.5917 129.792 60.5204C128.296 60.4421 126.794 60.8151 125.285 61.6396C123.646 62.5351 122.435 63.7203 121.652 65.1951C120.876 66.6498 120.508 68.2024 120.547 69.853C120.593 71.4835 121.024 73.0469 121.841 74.5433L123.706 77.9588C124.8 79.9625 126.082 81.4751 127.552 82.4966C129.034 83.5109 130.616 84.0406 132.295 84.0858C133.968 84.1179 135.657 83.6684 137.361 82.7373C138.467 82.1332 139.39 81.4262 140.13 80.6164C140.863 79.7936 141.387 78.8822 141.703 77.8821C142.018 76.8821 142.096 75.8177 141.935 74.689L148.001 72.6672C148.447 74.5353 148.431 76.3936 147.954 78.2422C147.483 80.0706 146.573 81.7922 145.226 83.407C143.884 85.0016 142.12 86.396 139.934 87.59Z" fill="url(#paint20_radial_147_339)"/>
<path d="M99.3146 71.5062L114.164 104.669L109.051 109.618L76.3878 93.7002L81.5164 88.7355L106.007 101.61L106.262 101.362L94.186 76.4708L99.3146 71.5062Z" fill="url(#paint21_radial_147_339)"/>
<path d="M91.5782 133.085C89.8696 135.984 87.7788 138.116 85.3058 139.48C82.8275 140.824 80.1234 141.398 77.1933 141.202C74.2579 140.985 71.2643 139.977 68.2124 138.177C65.1988 136.4 62.8739 134.272 61.2377 131.793C59.6091 129.301 58.7482 126.659 58.6553 123.868C58.5698 121.064 59.3324 118.296 60.9431 115.562C61.9216 113.902 63.1445 112.455 64.6119 111.22C66.0792 109.986 67.7653 109.096 69.6702 108.55C71.5751 108.004 73.6769 107.927 75.9755 108.318C78.2614 108.702 80.7387 109.681 83.4075 111.255L85.4379 112.452L71.6528 135.843L67.3622 133.313L77.8393 115.535C76.3325 114.647 74.8175 114.167 73.2942 114.094C71.7581 114.015 70.3242 114.331 68.9926 115.043C67.6685 115.742 66.5699 116.832 65.6969 118.314C64.7485 119.923 64.3164 121.561 64.4006 123.229C64.4796 124.876 64.9592 126.398 65.8395 127.795C66.7146 129.171 67.8864 130.292 69.3549 131.158L72.7069 133.135C74.6734 134.295 76.5495 134.936 78.335 135.06C80.1281 135.171 81.7574 134.815 83.2229 133.992C84.6756 133.162 85.8949 131.911 86.8809 130.238C87.5207 129.152 87.9508 128.072 88.1712 126.997C88.3788 125.915 88.3617 124.864 88.1199 123.844C87.878 122.823 87.399 121.87 86.6828 120.983L90.8548 116.137C92.1951 117.513 93.1342 119.116 93.6722 120.948C94.2049 122.759 94.3066 124.704 93.977 126.781C93.6423 128.838 92.8427 130.94 91.5782 133.085Z" fill="url(#paint22_radial_147_339)"/>
<path d="M75.3864 171.346L72.0686 185.711L27.6974 175.457L31.1203 160.638C32.1245 156.29 33.8751 152.762 36.3723 150.052C38.8551 147.34 41.9421 145.535 45.6334 144.638C49.3136 143.724 53.4574 143.799 58.065 144.863C62.687 145.931 66.4638 147.694 69.3956 150.152C72.3306 152.595 74.3267 155.612 75.3838 159.204C76.4264 162.792 76.4273 166.84 75.3864 171.346ZM67.7651 177.664L69.4516 170.363C70.2322 166.983 70.2456 164.027 69.4917 161.494C68.7233 158.958 67.2543 156.854 65.0846 155.181C62.9005 153.505 60.0535 152.261 56.5437 151.45C53.0627 150.645 49.9805 150.519 47.2971 151.07C44.617 151.607 42.3968 152.821 40.6364 154.712C38.876 156.603 37.6222 159.166 36.8749 162.401L35.0934 170.114L67.7651 177.664Z" fill="url(#paint23_radial_147_339)"/>
</g>
<defs>
<radialGradient id="paint0_radial_147_339" cx="0" cy="0" r="1" gradientUnits="userSpaceOnUse" gradientTransform="translate(48.7623 218.233) rotate(-0.133378) scale(52.2387 41.9257)">
<stop stop-color="#595985"/>
<stop offset="0.901042" stop-color="#0707B5"/>
</radialGradient>
<radialGradient id="paint1_radial_147_339" cx="0" cy="0" r="1" gradientUnits="userSpaceOnUse" gradientTransform="translate(59.9825 258.318) rotate(-16.3018) scale(52.1511 38.1783)">
<stop stop-color="#595985"/>
<stop offset="0.901042" stop-color="#0707B5"/>
</radialGradient>
<radialGradient id="paint2_radial_147_339" cx="0" cy="0" r="1" gradientUnits="userSpaceOnUse" gradientTransform="translate(73.349 282.621) rotate(-30.8676) scale(51.834 19.2059)">
<stop stop-color="#595985"/>
<stop offset="0.901042" stop-color="#0707B5"/>
</radialGradient>
<radialGradient id="paint3_radial_147_339" cx="0" cy="0" r="1" gradientUnits="userSpaceOnUse" gradientTransform="translate(87.5284 300.478) rotate(-37.8455) scale(51.9386 26.8341)">
<stop stop-color="#595985"/>
<stop offset="0.901042" stop-color="#0707B5"/>
</radialGradient>
<radialGradient id="paint4_radial_147_339" cx="0" cy="0" r="1" gradientUnits="userSpaceOnUse" gradientTransform="translate(114.301 323.359) rotate(-48.3103) scale(52.2487 41.9177)">
<stop stop-color="#595985"/>
<stop offset="0.901042" stop-color="#0707B5"/>
</radialGradient>
<radialGradient id="paint5_radial_147_339" cx="0" cy="0" r="1" gradientUnits="userSpaceOnUse" gradientTransform="translate(163.251 344.749) rotate(-71.6624) scale(51.9467 26.83)">
<stop stop-color="#595985"/>
<stop offset="0.901042" stop-color="#0707B5"/>
</radialGradient>
<radialGradient id="paint6_radial_147_339" cx="0" cy="0" r="1" gradientUnits="userSpaceOnUse" gradientTransform="translate(184.573 348.237) rotate(-81.5725) scale(51.8449 19.2019)">
<stop stop-color="#595985"/>
<stop offset="0.901042" stop-color="#0707B5"/>
</radialGradient>
<radialGradient id="paint7_radial_147_339" cx="0" cy="0" r="1" gradientUnits="userSpaceOnUse" gradientTransform="translate(214.246 347.985) rotate(-88.8398) scale(52.1655 38.1677)">
<stop stop-color="#595985"/>
<stop offset="0.901042" stop-color="#0707B5"/>
</radialGradient>
<radialGradient id="paint8_radial_147_339" cx="0" cy="0" r="1" gradientUnits="userSpaceOnUse" gradientTransform="translate(245.607 341.192) rotate(-103.553) scale(51.9465 26.8301)">
<stop stop-color="#595985"/>
<stop offset="0.901042" stop-color="#0707B5"/>
</radialGradient>
<radialGradient id="paint9_radial_147_339" cx="0" cy="0" r="1" gradientUnits="userSpaceOnUse" gradientTransform="translate(291.498 316.478) rotate(-120.955) scale(52.1604 38.1715)">
<stop stop-color="#595985"/>
<stop offset="0.901042" stop-color="#0707B5"/>
</radialGradient>
<radialGradient id="paint10_radial_147_339" cx="0" cy="0" r="1" gradientUnits="userSpaceOnUse" gradientTransform="translate(325.891 278.175) rotate(-142.941) scale(51.9366 26.8352)">
<stop stop-color="#595985"/>
<stop offset="0.901042" stop-color="#0707B5"/>
</radialGradient>
<radialGradient id="paint11_radial_147_339" cx="0" cy="0" r="1" gradientUnits="userSpaceOnUse" gradientTransform="translate(340.679 247.274) rotate(-153.207) scale(52.2412 41.9237)">
<stop stop-color="#595985"/>
<stop offset="0.901042" stop-color="#0707B5"/>
</radialGradient>
<radialGradient id="paint12_radial_147_339" cx="0" cy="0" r="1" gradientUnits="userSpaceOnUse" gradientTransform="translate(348.086 214.109) rotate(-169.099) scale(51.9319 26.8376)">
<stop stop-color="#595985"/>
<stop offset="0.901042" stop-color="#0707B5"/>
</radialGradient>
<radialGradient id="paint13_radial_147_339" cx="0" cy="0" r="1" gradientUnits="userSpaceOnUse" gradientTransform="translate(346.249 169.622) rotate(173.95) scale(51.932 26.8376)">
<stop stop-color="#595985"/>
<stop offset="0.901042" stop-color="#0707B5"/>
</radialGradient>
<radialGradient id="paint14_radial_147_339" cx="0" cy="0" r="1" gradientUnits="userSpaceOnUse" gradientTransform="translate(336.174 137.284) rotate(163.916) scale(52.2405 41.9243)">
<stop stop-color="#595985"/>
<stop offset="0.901042" stop-color="#0707B5"/>
</radialGradient>
<radialGradient id="paint15_radial_147_339" cx="0" cy="0" r="1" gradientUnits="userSpaceOnUse" gradientTransform="translate(314.563 102.146) rotate(148.078) scale(52.2441 41.9214)">
<stop stop-color="#595985"/>
<stop offset="0.901042" stop-color="#0707B5"/>
</radialGradient>
<radialGradient id="paint16_radial_147_339" cx="0" cy="0" r="1" gradientUnits="userSpaceOnUse" gradientTransform="translate(275.193 68.3782) rotate(131.952) scale(52.8196 60.3121)">
<stop stop-color="#595985"/>
<stop offset="0.901042" stop-color="#0707B5"/>
</radialGradient>
<radialGradient id="paint17_radial_147_339" cx="0" cy="0" r="1" gradientUnits="userSpaceOnUse" gradientTransform="translate(225.323 49.6866) rotate(108.266) scale(52.2539 41.9135)">
<stop stop-color="#595985"/>
<stop offset="0.901042" stop-color="#0707B5"/>
</radialGradient>
<radialGradient id="paint18_radial_147_339" cx="0" cy="0" r="1" gradientUnits="userSpaceOnUse" gradientTransform="translate(183.048 47.9821) rotate(91.967) scale(52.255 41.9127)">
<stop stop-color="#595985"/>
<stop offset="0.901042" stop-color="#0707B5"/>
</radialGradient>
<radialGradient id="paint19_radial_147_339" cx="0" cy="0" r="1" gradientUnits="userSpaceOnUse" gradientTransform="translate(154.006 53.839) rotate(76.2201) scale(51.8436 19.2024)">
<stop stop-color="#595985"/>
<stop offset="0.901042" stop-color="#0707B5"/>
</radialGradient>
<radialGradient id="paint20_radial_147_339" cx="0" cy="0" r="1" gradientUnits="userSpaceOnUse" gradientTransform="translate(127.082 65.0383) rotate(69.4337) scale(52.2523 41.9148)">
<stop stop-color="#595985"/>
<stop offset="0.901042" stop-color="#0707B5"/>
</radialGradient>
<radialGradient id="paint21_radial_147_339" cx="0" cy="0" r="1" gradientUnits="userSpaceOnUse" gradientTransform="translate(93.5167 89.4907) rotate(53.2912) scale(52.1588 38.1727)">
<stop stop-color="#595985"/>
<stop offset="0.901042" stop-color="#0707B5"/>
</radialGradient>
<radialGradient id="paint22_radial_147_339" cx="0" cy="0" r="1" gradientUnits="userSpaceOnUse" gradientTransform="translate(68.9791 120.305) rotate(38.5962) scale(52.2441 41.9214)">
<stop stop-color="#595985"/>
<stop offset="0.901042" stop-color="#0707B5"/>
</radialGradient>
<radialGradient id="paint23_radial_147_339" cx="0" cy="0" r="1" gradientUnits="userSpaceOnUse" gradientTransform="translate(51.2995 163.339) rotate(22.5243) scale(52.4441 49.3545)">
<stop stop-color="#595985"/>
<stop offset="0.901042" stop-color="#0707B5"/>
</radialGradient>
</defs>
</svg>
