<svg width="18" height="14" viewBox="0 0 18 14" fill="none" xmlns="http://www.w3.org/2000/svg">
<path d="M15.813 0.583313H2.47965C2.03763 0.583313 1.6137 0.758908 1.30114 1.07147C0.988583 1.38403 0.812988 1.80795 0.812988 2.24998V12.25C0.812988 12.692 0.988583 13.1159 1.30114 13.4285C1.6137 13.7411 2.03763 13.9166 2.47965 13.9166H15.813C16.255 13.9166 16.6789 13.7411 16.9915 13.4285C17.3041 13.1159 17.4797 12.692 17.4797 12.25V2.24998C17.4797 1.80795 17.3041 1.38403 16.9915 1.07147C16.6789 0.758908 16.255 0.583313 15.813 0.583313ZM15.813 4.49998L9.14632 8.94498L2.47965 4.49998V2.49748L9.14632 6.94165L15.813 2.49748V4.49998Z" fill="#0047FF"/>
</svg>
