<svg width="53" height="53" viewBox="0 0 53 53" fill="none" xmlns="http://www.w3.org/2000/svg">
<g clip-path="url(#clip0_27_1797)">
<path d="M7.32995 47.4844L3.09766 0.000213623L49.6529 0.000213623L45.4206 47.4844L26.3237 52.8522" fill="#E34F26"/>
<path d="M26.4268 48.7232L41.8075 44.491L45.4205 3.8197H26.4268" fill="#EF652A"/>
<path d="M26.4267 21.4707H18.6847L18.1686 15.4835H26.4267V9.70285H11.7686L13.317 27.3546H26.4267V21.4707ZM26.3235 36.645L19.8202 34.8901L19.4073 30.2449H13.6266L14.3492 39.4321L26.3235 42.7353V36.645Z" fill="#EBEBEB"/>
<path d="M26.3232 21.4719L26.3232 27.3558H33.5491L32.8265 34.8913L26.3232 36.6462V42.7366L38.2975 39.4333L39.9492 21.4719H26.3232ZM26.3232 9.70407V15.4848H40.4653L40.9814 9.70407H26.3232Z" fill="white"/>
</g>
<defs>
<clipPath id="clip0_27_1797">
<rect width="52.8521" height="52.852" fill="white"/>
</clipPath>
</defs>
</svg>
