<svg width="114" height="18" viewBox="0 0 114 18" fill="none" xmlns="http://www.w3.org/2000/svg">
<path d="M17.9025 7.61618C17.9939 5.08367 19.2554 2.89139 21.1078 1.52908C23.6429 -0.33537 27.3323 -0.680187 30.5349 1.53822C29.4493 1.2893 28.018 1.62244 26.579 2.30424C24.5557 1.84558 22.3896 2.21542 20.6298 3.50965C19.2191 4.54717 18.2976 6.01089 17.9025 7.61618Z" fill="black"/>
<path d="M24.219 17.2746C26.9938 18.4513 29.9211 17.9549 32.0412 16.3957C34.362 14.6889 35.7553 11.6793 35.0819 8.33008C34.3564 8.2811 33.5196 8.43838 32.6499 8.7479C33.1159 11.4747 32.1167 14.304 29.8139 15.9976C28.6178 16.8772 27.2341 17.3299 25.835 17.3856C25.8367 17.388 25.8385 17.3904 25.8403 17.3928L25.835 17.3856C25.2953 17.407 24.7534 17.3695 24.219 17.2746Z" fill="black"/>
<path d="M32.2108 7.17822C33.1462 6.91606 34.0206 6.85249 34.73 7.05927C34.5879 6.65725 34.4153 6.2522 34.2103 5.84568C33.4906 5.42144 32.5027 5.39931 31.4162 5.66213C31.7404 6.14771 32.0048 6.65626 32.2108 7.17822Z" fill="black"/>
<path d="M30.2816 4.30621C31.6306 3.95716 32.8387 4.0356 33.587 4.76159C33.4502 4.55013 33.3042 4.33864 33.1488 4.12736C32.9959 3.91946 32.8401 3.7202 32.6817 3.5294C31.8421 2.67813 30.3963 2.67645 28.8198 3.1961C29.3398 3.50312 29.8312 3.87389 30.2816 4.30621Z" fill="black"/>
<path d="M35.1708 8.81331C35.5642 11.3167 34.744 13.7093 33.1855 15.3999C31.0525 17.7138 27.4966 18.756 23.9296 17.1891C25.0427 17.2265 26.3842 16.6265 27.6667 15.6827C29.7405 15.747 31.7962 14.9708 33.2769 13.3646C34.4638 12.0771 35.0892 10.4645 35.1708 8.81331Z" fill="black"/>
<path d="M27.1282 0.53708C24.1798 -0.0888364 21.4008 0.95686 19.617 2.89189C17.6644 5.01004 16.8708 8.23013 18.1707 11.3894C18.8922 11.2991 19.6836 10.9851 20.4784 10.5154C19.5008 7.9275 19.9419 4.95961 21.8794 2.85786C22.8857 1.7662 24.1577 1.05792 25.5205 0.73637C25.5183 0.734337 25.5161 0.732306 25.5139 0.730278L25.5205 0.73637C26.0462 0.612327 26.5855 0.545829 27.1282 0.53708Z" fill="black"/>
<path d="M21.2088 11.9725C20.3406 12.4082 19.4944 12.6374 18.7586 12.5698C18.9747 12.9373 19.2214 13.302 19.5002 13.662C20.2876 13.9411 21.2616 13.7744 22.278 13.3092C21.8671 12.8943 21.5106 12.4456 21.2088 11.9725Z" fill="black"/>
<path d="M23.6504 14.4238C22.3928 15.0237 21.192 15.1772 20.3189 14.6073C20.4935 14.7887 20.6771 14.9685 20.8699 15.1462C21.0595 15.321 21.2503 15.4867 21.442 15.6436C22.4285 16.3196 23.8483 16.0455 25.297 15.2346C24.7281 15.0324 24.175 14.7622 23.6504 14.4238Z" fill="black"/>
<path d="M7.27034 17.4349C5.04077 17.4349 3.26979 16.6855 1.9574 15.1867C0.652466 13.6804 0 11.6484 0 9.09074C0 6.55544 0.659923 4.53466 1.97977 3.02839C3.29962 1.51467 5.06314 0.757803 7.27034 0.757803C9.03014 0.757803 10.5215 1.24995 11.7444 2.23424C12.9748 3.21108 13.7167 4.50483 13.9702 6.11549H11.9345C11.6736 5.05663 11.118 4.21029 10.268 3.57646C9.41789 2.93518 8.41868 2.61454 7.27034 2.61454C5.69696 2.61454 4.43677 3.20362 3.48976 4.38179C2.54275 5.55996 2.06925 7.12961 2.06925 9.09074C2.06925 11.0742 2.53903 12.6514 3.47858 13.8221C4.41813 14.9928 5.68578 15.5781 7.28153 15.5781C8.46715 15.5781 9.46636 15.306 10.2791 14.7616C11.0919 14.2173 11.6437 13.453 11.9345 12.4687H13.9702C13.5974 14.0644 12.8331 15.291 11.6773 16.1486C10.5215 17.0061 9.05251 17.4349 7.27034 17.4349Z" fill="black"/>
<path d="M40.2889 17.1664H38.2755V1.02625H40.2889V17.1664Z" fill="black"/>
<path d="M45.4117 17.1664H43.4207V1.02625H45.3781L54.2144 13.699H54.315V1.02625H56.306V17.1664H54.3486L45.5123 4.53839H45.4117V17.1664Z" fill="black"/>
<path d="M66.093 17.1664H64.102L58.1515 1.02625H60.2655L65.0639 14.7169H65.1311L69.9295 1.02625H72.0435L66.093 17.1664Z" fill="black"/>
<path d="M83.8885 15.3544V17.1664H73.889V1.02625H83.8885V2.83824H75.9024V8.01697H83.4747V9.80659H75.9024V15.3544H83.8885Z" fill="black"/>
<path d="M88.5416 17.1664H86.5506V1.02625H88.508L97.3443 13.699H97.4449V1.02625H99.4359V17.1664H97.4785L88.6422 4.53839H88.5416V17.1664Z" fill="black"/>
<path d="M108.775 17.1664H106.762V2.83824H101.561V1.02625H113.977V2.83824H108.775V17.1664Z" fill="black"/>
</svg>
