<svg width="57" height="52" viewBox="0 0 57 52" fill="none" xmlns="http://www.w3.org/2000/svg">
<g clip-path="url(#clip0_27_1815)">
<path d="M25.541 0.000425956C23.4171 0.0102946 21.3888 0.191432 19.6042 0.507228C14.3468 1.43604 13.3922 3.38012 13.3922 6.96533V11.7003H25.8161V13.2786H13.3922H8.72966C5.11894 13.2786 1.95729 15.4489 0.968361 19.5774C-0.172351 24.3097 -0.222948 27.2628 0.968361 32.204C1.85149 35.8821 3.96054 38.5029 7.57126 38.5029H11.8429V32.8267C11.8429 28.726 15.3909 25.1088 19.6042 25.1088H32.0136C35.4679 25.1088 38.2255 22.2646 38.2255 18.7955V6.96533C38.2255 3.59839 35.3851 1.06916 32.0136 0.507228C29.8793 0.151957 27.6649 -0.00944286 25.541 0.000425956ZM18.8223 3.80868C20.1056 3.80868 21.1535 4.87378 21.1535 6.1834C21.1535 7.48839 20.1056 8.54365 18.8223 8.54365C17.5344 8.54365 16.491 7.48839 16.491 6.1834C16.491 4.87378 17.5344 3.80868 18.8223 3.80868Z" fill="url(#paint0_linear_27_1815)"/>
<path d="M39.7747 13.2786V18.7955C39.7747 23.0727 36.1485 26.6727 32.0134 26.6727H19.604C16.2049 26.6727 13.3921 29.5819 13.3921 32.986V44.8162C13.3921 48.1831 16.3199 50.1635 19.604 51.1295C23.5367 52.2858 27.308 52.4948 32.0134 51.1295C35.1412 50.2239 38.2254 48.4014 38.2254 44.8162V40.0812H25.816V38.5029H38.2254H44.4373C48.048 38.5029 49.3935 35.9843 50.6492 32.204C51.9463 28.3123 51.8912 24.5698 50.6492 19.5774C49.7569 15.9829 48.0526 13.2786 44.4373 13.2786H39.7747ZM32.7953 43.2378C34.0833 43.2378 35.1266 44.2931 35.1266 45.5981C35.1266 46.9077 34.0833 47.9728 32.7953 47.9728C31.512 47.9728 30.4641 46.9077 30.4641 45.5981C30.4641 44.2931 31.512 43.2378 32.7953 43.2378Z" fill="url(#paint1_linear_27_1815)"/>
</g>
<defs>
<linearGradient id="paint0_linear_27_1815" x1="0.0937498" y1="-1.34392e-07" x2="28.7418" y2="24.4122" gradientUnits="userSpaceOnUse">
<stop stop-color="#5A9FD4"/>
<stop offset="1" stop-color="#306998"/>
</linearGradient>
<linearGradient id="paint1_linear_27_1815" x1="32.4968" y1="45.2" x2="22.2189" y2="30.7977" gradientUnits="userSpaceOnUse">
<stop stop-color="#FFD43B"/>
<stop offset="1" stop-color="#FFE873"/>
</linearGradient>
<clipPath id="clip0_27_1815">
<rect width="56.6222" height="52" fill="white" transform="translate(0.09375)"/>
</clipPath>
</defs>
</svg>
