<svg width="53" height="52" viewBox="0 0 53 52" fill="none" xmlns="http://www.w3.org/2000/svg">
<g clip-path="url(#clip0_27_1819)">
<path d="M52.7158 26C52.7158 11.6406 41.0752 0 26.7158 0C12.3564 0 0.71582 11.6406 0.71582 26C0.71582 40.3594 12.3564 52 26.7158 52C41.0752 52 52.7158 40.3594 52.7158 26Z" fill="#3178C6"/>
<path fill-rule="evenodd" clip-rule="evenodd" d="M29.0456 32.4415V37.5258C29.8721 37.9495 30.8496 38.2672 31.9782 38.4791C33.1067 38.6909 34.2961 38.7969 35.5466 38.7969C36.7652 38.7969 37.9228 38.6804 39.0196 38.4473C40.1164 38.2143 41.0781 37.8303 41.9046 37.2954C42.7311 36.7605 43.3855 36.0614 43.8676 35.1981C44.3497 34.3348 44.5908 33.2677 44.5908 31.9967C44.5908 31.0751 44.4531 30.2675 44.1776 29.5737C43.902 28.8799 43.5047 28.2629 42.9854 27.7227C42.4662 27.1825 41.8437 26.6978 41.1178 26.2688C40.3919 25.8398 39.5733 25.4347 38.662 25.0534C37.9944 24.778 37.3957 24.5106 36.8659 24.2511C36.336 23.9915 35.8857 23.7267 35.5148 23.4567C35.1439 23.1865 34.8578 22.9005 34.6565 22.5987C34.4552 22.2967 34.3544 21.9552 34.3544 21.5738C34.3544 21.2243 34.4445 20.9092 34.6247 20.6285C34.8049 20.3477 35.0592 20.1068 35.3876 19.9055C35.7162 19.7043 36.1188 19.548 36.5956 19.4368C37.0726 19.3256 37.6023 19.2701 38.1852 19.2701C38.609 19.2701 39.0567 19.3019 39.5282 19.3653C39.9998 19.4289 40.474 19.5269 40.9509 19.6592C41.4278 19.7917 41.8913 19.9586 42.3417 20.1597C42.792 20.361 43.2079 20.594 43.5894 20.8589V16.1082C42.8159 15.8117 41.9708 15.5919 41.0542 15.4489C40.1376 15.3059 39.0858 15.2344 37.8991 15.2344C36.691 15.2344 35.5466 15.3642 34.4658 15.6237C33.3849 15.8832 32.4339 16.2883 31.6126 16.8391C30.7913 17.3899 30.1423 18.0916 29.6655 18.9444C29.1887 19.797 28.9502 20.8165 28.9502 22.0028C28.9502 23.5175 29.3873 24.8098 30.2616 25.8796C31.1357 26.9494 32.4629 27.855 34.2432 28.5965C34.9426 28.8825 35.5943 29.1632 36.1983 29.4386C36.8023 29.714 37.3242 30 37.7639 30.2966C38.2037 30.5932 38.5507 30.9162 38.8051 31.2658C39.0594 31.6153 39.1866 32.0125 39.1866 32.4574C39.1866 32.7858 39.1071 33.0903 38.9481 33.371C38.7892 33.6517 38.5481 33.8953 38.2249 34.1018C37.9017 34.3084 37.499 34.4699 37.0169 34.5864C36.5347 34.703 35.9705 34.7612 35.3241 34.7612C34.222 34.7612 33.1306 34.5679 32.0497 34.1813C30.9689 33.7947 29.9674 33.2148 29.0456 32.4415ZM20.4982 19.9146H27.0205V15.7422H8.84082V19.9146H15.3313V38.4922H20.4982V19.9146Z" fill="white"/>
</g>
<defs>
<clipPath id="clip0_27_1819">
<rect width="52" height="52" fill="white" transform="translate(0.71582)"/>
</clipPath>
</defs>
</svg>
